<svg width="79" height="40" viewBox="0 0 79 40" fill="none" xmlns="http://www.w3.org/2000/svg">
<g filter="url(#filter0_bi_52_301)">
<rect x="-0.000244141" y="0.608643" width="79" height="38.7829" rx="19.3915" fill="#282828" fill-opacity="0.5"/>
<path d="M10.2767 25.5H8.79947L13.0722 13.8636H14.5267L18.7995 25.5H17.3222L13.8449 15.7045H13.754L10.2767 25.5ZM10.8222 20.9545H16.7767V22.2045H10.8222V20.9545ZM26.612 18.7273L25.4074 19.0682C25.3317 18.8674 25.2199 18.6723 25.0722 18.483C24.9283 18.2898 24.7313 18.1307 24.4813 18.0057C24.2313 17.8807 23.9112 17.8182 23.5211 17.8182C22.987 17.8182 22.5419 17.9413 22.1858 18.1875C21.8336 18.4299 21.6574 18.7386 21.6574 19.1136C21.6574 19.447 21.7786 19.7102 22.0211 19.9034C22.2635 20.0966 22.6423 20.2576 23.1574 20.3864L24.4529 20.7045C25.2332 20.8939 25.8146 21.1837 26.1972 21.5739C26.5798 21.9602 26.7711 22.4583 26.7711 23.0682C26.7711 23.5682 26.6271 24.0152 26.3392 24.4091C26.0552 24.803 25.6574 25.1136 25.1461 25.3409C24.6347 25.5682 24.04 25.6818 23.362 25.6818C22.4718 25.6818 21.7351 25.4886 21.1517 25.1023C20.5684 24.7159 20.1991 24.1515 20.0438 23.4091L21.3165 23.0909C21.4377 23.5606 21.6669 23.9129 22.004 24.1477C22.3449 24.3826 22.79 24.5 23.3392 24.5C23.9642 24.5 24.4605 24.3674 24.8279 24.1023C25.1991 23.8333 25.3847 23.5114 25.3847 23.1364C25.3847 22.8333 25.2786 22.5795 25.0665 22.375C24.8544 22.1667 24.5286 22.0114 24.0892 21.9091L22.6347 21.5682C21.8355 21.3788 21.2483 21.0852 20.8733 20.6875C20.5021 20.286 20.3165 19.7841 20.3165 19.1818C20.3165 18.6894 20.4548 18.2538 20.7313 17.875C21.0116 17.4962 21.3923 17.1989 21.8733 16.983C22.3582 16.767 22.9074 16.6591 23.5211 16.6591C24.3847 16.6591 25.0627 16.8485 25.5552 17.2273C26.0514 17.6061 26.4036 18.1061 26.612 18.7273ZM32.585 16.7727V17.9091H28.0623V16.7727H32.585ZM29.3804 14.6818H30.7213V23C30.7213 23.3788 30.7763 23.6629 30.8861 23.8523C30.9998 24.0379 31.1437 24.1629 31.3179 24.2273C31.496 24.2879 31.6835 24.3182 31.8804 24.3182C32.0282 24.3182 32.1494 24.3106 32.2441 24.2955C32.3388 24.2765 32.4145 24.2614 32.4713 24.25L32.7441 25.4545C32.6532 25.4886 32.5263 25.5227 32.3634 25.5568C32.2005 25.5947 31.9941 25.6136 31.7441 25.6136C31.3653 25.6136 30.9941 25.5322 30.6304 25.3693C30.2706 25.2064 29.9713 24.9583 29.7327 24.625C29.4979 24.2917 29.3804 23.8712 29.3804 23.3636V14.6818ZM34.602 25.5V16.7727H35.8975V18.0909H35.9884C36.1475 17.6591 36.4354 17.3087 36.852 17.0398C37.2687 16.7708 37.7384 16.6364 38.2611 16.6364C38.3596 16.6364 38.4827 16.6383 38.6304 16.642C38.7782 16.6458 38.8899 16.6515 38.9657 16.6591V18.0227C38.9202 18.0114 38.816 17.9943 38.6532 17.9716C38.4941 17.9451 38.3255 17.9318 38.1475 17.9318C37.7232 17.9318 37.3445 18.0208 37.0111 18.1989C36.6816 18.3731 36.4202 18.6155 36.227 18.9261C36.0376 19.233 35.9429 19.5833 35.9429 19.9773V25.5H34.602ZM43.835 25.6818C43.0471 25.6818 42.3558 25.4943 41.7611 25.1193C41.1702 24.7443 40.7081 24.2197 40.3748 23.5455C40.0452 22.8712 39.8804 22.0833 39.8804 21.1818C39.8804 20.2727 40.0452 19.4792 40.3748 18.8011C40.7081 18.1231 41.1702 17.5966 41.7611 17.2216C42.3558 16.8466 43.0471 16.6591 43.835 16.6591C44.6229 16.6591 45.3123 16.8466 45.9032 17.2216C46.4979 17.5966 46.96 18.1231 47.2895 18.8011C47.6229 19.4792 47.7895 20.2727 47.7895 21.1818C47.7895 22.0833 47.6229 22.8712 47.2895 23.5455C46.96 24.2197 46.4979 24.7443 45.9032 25.1193C45.3123 25.4943 44.6229 25.6818 43.835 25.6818ZM43.835 24.4773C44.4335 24.4773 44.9259 24.3239 45.3123 24.017C45.6986 23.7102 45.9846 23.3068 46.1702 22.8068C46.3558 22.3068 46.4486 21.7652 46.4486 21.1818C46.4486 20.5985 46.3558 20.0549 46.1702 19.5511C45.9846 19.0473 45.6986 18.6402 45.3123 18.3295C44.9259 18.0189 44.4335 17.8636 43.835 17.8636C43.2365 17.8636 42.7441 18.0189 42.3577 18.3295C41.9713 18.6402 41.6854 19.0473 41.4998 19.5511C41.3141 20.0549 41.2213 20.5985 41.2213 21.1818C41.2213 21.7652 41.3141 22.3068 41.4998 22.8068C41.6854 23.3068 41.9713 23.7102 42.3577 24.017C42.7441 24.3239 43.2365 24.4773 43.835 24.4773Z" fill="#F4F4F4"/>
<path d="M58.8541 28.0139C57.8284 27.0731 57.5289 25.0962 57.9563 23.6641C58.6973 24.567 59.724 24.853 60.7874 25.0145C62.4292 25.2637 64.0415 25.1705 65.5666 24.4175C65.7411 24.3313 65.9023 24.2167 66.0929 24.1006C66.2361 24.5171 66.2733 24.9378 66.2233 25.3658C66.1018 26.4083 65.5848 27.2137 64.7624 27.8241C64.4336 28.0682 64.0856 28.2865 63.746 28.5168C62.7027 29.2244 62.4204 30.0541 62.8124 31.261C62.8217 31.2904 62.8301 31.3198 62.8511 31.3916C62.3184 31.1524 61.9293 30.8041 61.6328 30.3461C61.3197 29.8627 61.1707 29.328 61.1628 28.7495C61.1589 28.4679 61.1589 28.1838 61.1211 27.9063C61.029 27.2296 60.7125 26.9266 60.116 26.9091C59.5039 26.8912 59.0197 27.2709 58.8913 27.8689C58.8816 27.9148 58.8673 27.9601 58.8531 28.0134L58.8541 28.0139Z" fill="#FF5D01"/>
<path d="M52.9998 23.4254C52.9998 23.4254 56.0371 21.9406 59.0829 21.9406L61.3793 14.8091C61.4653 14.4642 61.7164 14.2299 61.9997 14.2299C62.2831 14.2299 62.5342 14.4642 62.6202 14.8091L64.9166 21.9406C68.5239 21.9406 70.9998 23.4254 70.9998 23.4254C70.9998 23.4254 65.8406 9.32244 65.8305 9.29414C65.6824 8.87718 65.4325 8.60864 65.0955 8.60864H58.9046C58.5676 8.60864 58.3277 8.87718 58.1695 9.29414C58.1584 9.3219 52.9998 23.4254 52.9998 23.4254Z" fill="white"/>
</g>
<defs>
<filter id="filter0_bi_52_301" x="-100" y="-99.3914" width="279" height="238.783" filterUnits="userSpaceOnUse" color-interpolation-filters="sRGB">
<feFlood flood-opacity="0" result="BackgroundImageFix"/>
<feGaussianBlur in="BackgroundImageFix" stdDeviation="50"/>
<feComposite in2="SourceAlpha" operator="in" result="effect1_backgroundBlur_52_301"/>
<feBlend mode="normal" in="SourceGraphic" in2="effect1_backgroundBlur_52_301" result="shape"/>
<feColorMatrix in="SourceAlpha" type="matrix" values="0 0 0 0 0 0 0 0 0 0 0 0 0 0 0 0 0 0 127 0" result="hardAlpha"/>
<feOffset dx="2" dy="4"/>
<feGaussianBlur stdDeviation="8"/>
<feComposite in2="hardAlpha" operator="arithmetic" k2="-1" k3="1"/>
<feColorMatrix type="matrix" values="0 0 0 0 0.972549 0 0 0 0 0.972549 0 0 0 0 0.972549 0 0 0 0.06 0"/>
<feBlend mode="normal" in2="shape" result="effect2_innerShadow_52_301"/>
</filter>
</defs>
</svg>
