<svg width="139" height="61" viewBox="0 0 139 61" fill="none" xmlns="http://www.w3.org/2000/svg">
<g filter="url(#filter0_i_14_6526)">
<rect x="2" y="2.5" width="135" height="56" rx="24" fill="url(#paint0_linear_14_6526)"/>
<rect x="1" y="1.5" width="137" height="58" rx="25" stroke="white" stroke-width="2"/>
<path d="M109.884 44.2056C112.183 44.2056 114 43.055 114 40.7167V40.6796C114 38.6754 112.183 37.9331 110.551 37.4506C109.253 37.0423 108.067 36.7082 108.067 35.8917V35.8546C108.067 35.1865 108.623 34.7411 109.624 34.7411C110.734 34.8188 111.805 35.1763 112.739 35.7804L113.74 33.9617C112.528 33.1625 111.113 32.7248 109.661 32.6998C107.473 32.6998 105.73 33.9988 105.73 36.0773V36.1144C105.73 38.23 107.547 38.8981 109.179 39.3806C110.477 39.7888 111.664 40.0858 111.664 40.9394V40.9765C111.664 41.7188 111.033 42.1642 109.958 42.1642C108.628 42.1208 107.35 41.6379 106.324 40.791L105.174 42.4983C106.5 43.5949 108.164 44.1982 109.884 44.2056ZM97.7946 44.2427C99.5004 44.2427 100.539 43.3519 101.243 42.2756V43.9829H103.765V32.9225H101.243V39.195C101.243 40.9023 100.205 41.9415 98.7587 41.9415C97.2383 41.9415 96.3854 40.9394 96.3854 39.2321V32.9225H93.8637V39.9744C93.8637 42.5725 95.31 44.2353 97.7946 44.2353V44.2427ZM89.0429 44.02H91.5646V28.6913H89.0429V44.02ZM81.4408 42.0529C79.735 42.0529 78.2146 40.6425 78.2146 38.4898V38.4527C78.2146 36.3371 79.735 34.8896 81.4408 34.8896C83.1467 34.8896 84.5929 36.3 84.5929 38.4527V38.4898C84.5929 40.6796 83.1837 42.0529 81.4408 42.0529ZM75.73 47.3604H78.2517V42.2756C78.6667 42.8859 79.2255 43.3846 79.8787 43.7277C80.5319 44.0707 81.2594 44.2476 81.9971 44.2427C84.63 44.2427 87.1517 42.1642 87.1517 38.4898V38.4527C87.1517 34.7782 84.63 32.6998 81.9971 32.6998C80.2171 32.6998 79.0675 33.6276 78.2517 34.7782V32.9225H75.73V47.3604Z" fill="white"/>
<path d="M63.6038 44.0201H66.1254V37.7475C66.1254 36.0402 67.1638 35.001 68.61 35.001C70.1304 35.001 70.9833 36.0031 70.9833 37.7104V44.0201H73.505V36.9681C73.505 34.37 72.0588 32.6998 69.5742 32.6998C67.8683 32.6998 66.83 33.5906 66.1254 34.667V28.6913H63.6038V44.0201Z" fill="white"/>
<path d="M57.8187 44.2057C60.1179 44.2057 61.935 43.0551 61.935 40.7168V40.6797C61.935 38.6755 60.1179 37.9332 58.4862 37.4507C57.1883 37.0424 56.0016 36.7083 56.0016 35.8918V35.8547C56.0016 35.1866 56.5579 34.7412 57.5591 34.7412C58.6685 34.8189 59.7401 35.1764 60.6741 35.7805L61.6754 33.9618C60.4627 33.1626 59.048 32.7249 57.5962 32.6999C55.4083 32.6999 53.6654 33.9989 53.6654 36.0774V36.1145C53.6654 38.2301 55.4825 38.8982 57.1141 39.3807C58.4121 39.7889 59.5987 40.0859 59.5987 40.9395V40.9766C59.5987 41.7189 58.9683 42.1643 57.8929 42.1643C56.5632 42.1209 55.2853 41.638 54.2587 40.7911L53.1091 42.4984C54.4409 43.5842 56.1011 44.186 57.8187 44.2057Z" fill="white"/>
<path d="M47.0646 32.7741C45.6024 32.7494 44.1548 33.0671 42.8371 33.7019L43.5417 35.7433C44.5323 35.2924 45.6056 35.0523 46.6938 35.0381C48.4738 35.0381 49.4379 35.8918 49.4379 37.4135V37.5991C48.4427 37.2853 47.4033 37.1349 46.36 37.1537C43.7642 37.1537 41.8729 38.3414 41.8729 40.791V40.8281C41.8729 43.0551 43.7271 44.2428 45.8038 44.2428C46.4841 44.2607 47.1599 44.1268 47.7821 43.8508C48.4043 43.5747 48.9573 43.1634 49.4008 42.6468V44.0201H51.9225V37.4506C51.9225 34.4814 50.3279 32.7741 47.0646 32.7741ZM46.5454 42.3499C45.3588 42.3499 44.3946 41.756 44.3946 40.7168V40.6797C44.3946 39.6033 45.3217 38.9724 46.9163 38.9724C47.7774 38.9604 48.6329 39.1115 49.4379 39.4177V40.0116H49.475C49.475 41.3849 48.2142 42.3499 46.5454 42.3499Z" fill="white"/>
<path d="M36.6813 44.2353C37.5448 44.2644 38.4033 44.0917 39.1886 43.7309C39.9739 43.3701 40.6644 42.8312 41.2054 42.1568L39.685 40.6351C38.9063 41.4516 38.0163 42.0084 36.8296 42.0084C34.8642 42.0084 33.5292 40.4124 33.5292 38.4453V38.4082C33.5292 36.4782 34.8642 34.8822 36.7183 34.8822C38.0163 34.8822 38.8321 35.4389 39.5738 36.2555L41.1313 34.5481C40.0929 33.3976 38.795 32.6553 36.7183 32.6553C35.9591 32.6508 35.2066 32.7977 34.5048 33.0876C33.803 33.3774 33.1659 33.8043 32.6308 34.3434C32.0956 34.8824 31.6732 35.5228 31.3881 36.2271C31.103 36.9314 30.961 37.6855 30.9704 38.4453V38.4824C30.9513 39.24 31.0856 39.9936 31.3653 40.6978C31.6451 41.402 32.0644 42.0422 32.5981 42.5798C33.1317 43.1174 33.7686 43.5412 34.4704 43.8257C35.1722 44.1103 35.9242 44.2496 36.6813 44.2353Z" fill="white"/>
<path d="M59.6358 45.5788H57.5963C57.5902 46.5812 57.1906 47.541 56.4838 48.2511C55.7792 49.2904 54.1104 49.3275 53.8508 49.3275H31.4154C30.4139 49.3214 29.4549 48.9215 28.7454 48.214C28.388 47.8843 28.1092 47.4784 27.9296 47.0263C27.7353 46.5554 27.6346 46.0511 27.6329 45.5417V27.2066C28.21 27.4434 28.8264 27.5693 29.45 27.5777H53.8138C54.8153 27.5838 55.7742 27.9837 56.4838 28.6912C56.8412 29.021 57.12 29.4269 57.2996 29.8789C57.4939 30.3498 57.5946 30.8541 57.5963 31.3635H59.6358C59.715 31.3625 59.7931 31.3448 59.8651 31.3118C59.937 31.2787 60.0013 31.2309 60.0537 31.1714C60.1061 31.112 60.1455 31.0423 60.1693 30.9667C60.1931 30.8911 60.2009 30.8113 60.1921 30.7326C60.0457 29.4213 59.5169 28.1821 58.6717 27.1695L58.3379 26.8354C58.0287 26.5345 57.6937 26.2612 57.3367 26.0189L58.3379 22.0475L58.4863 21.4908C58.5119 21.3982 58.5187 21.3014 58.5064 21.206C58.494 21.1107 58.4627 21.0189 58.4143 20.9358C58.366 20.8528 58.3015 20.7803 58.2246 20.7227C58.1478 20.665 58.0603 20.6233 57.9671 20.6L57.4108 20.4516L51.2179 18.8185L52.2933 14.7729L52.4417 14.1419C52.4666 14.0566 52.4738 13.967 52.4628 13.8788C52.4518 13.7906 52.4228 13.7056 52.3776 13.629C52.3324 13.5525 52.2719 13.486 52.2001 13.4338C52.1282 13.3816 52.0463 13.3447 51.9596 13.3254L51.3292 13.1769L36.4217 9.20555L35.7913 9.01997C35.6291 8.97864 35.4572 9.00199 35.3119 9.08509C35.1666 9.16819 35.0593 9.30454 35.0125 9.46536L34.8271 10.1334L33.1583 16.5173L27.3363 19.2639L27.225 19.301C26.5429 19.6868 25.9788 20.2514 25.5933 20.9341C25.2117 21.6147 25.0076 22.3806 25 23.161V45.5788C25.0079 46.9254 25.4357 48.236 26.2238 49.3275C26.4052 49.6198 26.6303 49.8827 26.8913 50.1069C27.4785 50.712 28.1821 51.1916 28.9597 51.517C29.7373 51.8423 30.5727 52.0066 31.4154 51.9998H53.8138C55.5118 51.9889 57.1373 51.3088 58.3379 50.1069C58.5815 49.8659 58.8047 49.6052 59.0054 49.3275C59.6796 48.4171 60.0902 47.3384 60.1921 46.2098C60.2009 46.131 60.1931 46.0512 60.1693 45.9757C60.1455 45.9001 60.1061 45.8303 60.0537 45.7709C60.0013 45.7115 59.937 45.6637 59.8651 45.6306C59.7931 45.5975 59.715 45.5799 59.6358 45.5788ZM38.9063 24.9797H37.2375C37.4023 24.4843 37.6914 24.0395 38.0771 23.688C38.4627 23.3364 38.9321 23.0898 39.4403 22.9717L38.9767 24.757L38.9063 24.9797ZM54.9633 22.5671C55.0297 22.5831 55.0922 22.6123 55.1471 22.6529C55.202 22.6936 55.2481 22.7449 55.2827 22.8038C55.3173 22.8627 55.3397 22.928 55.3485 22.9957C55.3574 23.0635 55.3525 23.1323 55.3342 23.1981L54.9633 24.6456C54.9279 24.7624 54.8531 24.8632 54.7516 24.9309C54.6502 24.9986 54.5284 25.0289 54.4071 25.0168C54.211 24.9848 54.0123 24.9723 53.8138 24.9797H42.2808C42.2039 24.9802 42.1279 24.9628 42.0588 24.929C41.9897 24.8951 41.9294 24.8456 41.8827 24.7844C41.8359 24.7233 41.804 24.6521 41.7895 24.5765C41.7749 24.5008 41.7781 24.4229 41.7988 24.3487L42.9483 19.9319C42.9643 19.8655 42.9934 19.803 43.034 19.748C43.0747 19.6931 43.1259 19.647 43.1848 19.6123C43.2436 19.5777 43.3088 19.5553 43.3765 19.5464C43.4442 19.5376 43.513 19.5424 43.5788 19.5608L54.9633 22.5671ZM33.7146 24.6456L36.9408 12.3975C36.9502 12.3632 36.9664 12.331 36.9883 12.303C37.0103 12.275 37.0376 12.2517 37.0687 12.2344C37.0998 12.2171 37.134 12.2062 37.1694 12.2024C37.2047 12.1985 37.2405 12.2017 37.2746 12.2119L49.1413 15.3296C49.1756 15.339 49.2076 15.3552 49.2356 15.3771C49.2636 15.3991 49.2869 15.4265 49.3042 15.4576C49.3215 15.4887 49.3323 15.523 49.3362 15.5584C49.3401 15.5937 49.3368 15.6295 49.3267 15.6637L48.7333 17.9277C48.724 17.962 48.7078 17.9941 48.6858 18.0222C48.6639 18.0502 48.6366 18.0735 48.6055 18.0908C48.5744 18.1081 48.5402 18.119 48.5048 18.1228C48.4694 18.1267 48.4337 18.1234 48.3996 18.1133L42.4663 16.5544L42.1696 16.4802C42.043 16.4439 41.9103 16.4334 41.7796 16.4494C41.6488 16.4654 41.5226 16.5075 41.4084 16.5733C41.2943 16.6391 41.1945 16.7272 41.115 16.8323C41.0356 16.9375 40.978 17.0575 40.9458 17.1854L40.8717 17.4823L39.8333 21.476C38.8738 21.6292 37.972 22.0341 37.2196 22.6496C36.4672 23.265 35.8912 24.069 35.5502 24.9797H33.9742C33.9328 24.9814 33.8917 24.9732 33.8541 24.9558C33.8166 24.9384 33.7838 24.9123 33.7584 24.8796C33.733 24.8469 33.7158 24.8086 33.7081 24.7679C33.7005 24.7272 33.7027 24.6853 33.7146 24.6456ZM27.8554 22.2702C28.0062 22.0079 28.2237 21.7902 28.4858 21.6393L30.8962 20.5258C31.0167 20.4704 31.1504 20.4504 31.2818 20.4684C31.4131 20.4863 31.5367 20.5414 31.6379 20.6271C31.7391 20.7128 31.8138 20.8256 31.8532 20.9523C31.8926 21.079 31.8951 21.2143 31.8604 21.3423L30.9704 24.6085C30.9355 24.7007 30.8752 24.7811 30.7964 24.8402C30.7176 24.8994 30.6236 24.9349 30.5254 24.9425H29.4129C29.1788 24.9439 28.9468 24.8987 28.7303 24.8095C28.5139 24.7203 28.3173 24.5889 28.1521 24.4229C27.9835 24.2596 27.8504 24.0633 27.761 23.8461C27.6717 23.629 27.6281 23.3958 27.6329 23.161C27.6272 22.8496 27.7039 22.5423 27.8554 22.2702Z" fill="white"/>
</g>
<defs>
<filter id="filter0_i_14_6526" x="0" y="-1.5" width="143" height="62" filterUnits="userSpaceOnUse" color-interpolation-filters="sRGB">
<feFlood flood-opacity="0" result="BackgroundImageFix"/>
<feBlend mode="normal" in="SourceGraphic" in2="BackgroundImageFix" result="shape"/>
<feColorMatrix in="SourceAlpha" type="matrix" values="0 0 0 0 0 0 0 0 0 0 0 0 0 0 0 0 0 0 127 0" result="hardAlpha"/>
<feOffset dx="4" dy="-2"/>
<feGaussianBlur stdDeviation="5"/>
<feComposite in2="hardAlpha" operator="arithmetic" k2="-1" k3="1"/>
<feColorMatrix type="matrix" values="0 0 0 0 0.0563165 0 0 0 0 0.180087 0 0 0 0 0.498356 0 0 0 0.75 0"/>
<feBlend mode="normal" in2="shape" result="effect1_innerShadow_14_6526"/>
</filter>
<linearGradient id="paint0_linear_14_6526" x1="70" y1="61.5" x2="72.0721" y2="18.8577" gradientUnits="userSpaceOnUse">
<stop stop-color="#78B6FF"/>
<stop offset="1" stop-color="#3994FF"/>
</linearGradient>
</defs>
</svg>
