<svg width="42" height="61" viewBox="0 0 42 61" fill="none" xmlns="http://www.w3.org/2000/svg">
<path d="M40.208 39.8698C40.8695 40.5257 40.4005 41.6467 39.466 41.6467H22.05C21.469 41.6467 21 42.1117 21 42.6879V59.9573C21 60.884 19.8695 61.349 19.208 60.6931L0.4095 42.0527C0.147 41.7924 0 41.4385 0 41.0706V21.8645C0 21.2884 0.469 20.8234 1.05 20.8234H21L40.208 39.8698Z" fill="white"/>
<path d="M21 20.8233L1.79199 1.77692C1.13049 1.12099 1.59949 0 2.53399 0H40.95C41.531 0 42 0.465054 42 1.04117V19.7822C42 20.3583 41.531 20.8233 40.95 20.8233H21Z" fill="white"/>
</svg>
