<svg width="95" height="40" viewBox="0 0 95 40" fill="none" xmlns="http://www.w3.org/2000/svg">
<g filter="url(#filter0_bi_52_293)">
<rect x="-0.000244141" y="0.296143" width="95" height="39.4075" rx="19.7038" fill="#282828" fill-opacity="0.5"/>
<path d="M17.4025 17.5C17.2775 17.1174 17.1127 16.7746 16.9081 16.4716C16.7074 16.1648 16.4668 15.9034 16.1865 15.6875C15.91 15.4716 15.5956 15.3068 15.2434 15.1932C14.8911 15.0795 14.5047 15.0227 14.0843 15.0227C13.3949 15.0227 12.768 15.2008 12.2036 15.5568C11.6392 15.9129 11.1903 16.4375 10.857 17.1307C10.5237 17.8239 10.357 18.6742 10.357 19.6818C10.357 20.6894 10.5256 21.5398 10.8627 22.233C11.1998 22.9261 11.6562 23.4508 12.232 23.8068C12.8078 24.1629 13.4555 24.3409 14.1752 24.3409C14.8418 24.3409 15.429 24.1989 15.9365 23.9148C16.4479 23.6269 16.8456 23.2216 17.1297 22.6989C17.4176 22.1723 17.5615 21.553 17.5615 20.8409L17.9934 20.9318H14.4934V19.6818H18.9252V20.9318C18.9252 21.8902 18.7206 22.7235 18.3115 23.4318C17.9062 24.1402 17.3456 24.6894 16.6297 25.0795C15.9176 25.4659 15.0994 25.6591 14.1752 25.6591C13.1449 25.6591 12.2396 25.4167 11.4593 24.9318C10.6828 24.447 10.0767 23.7576 9.64109 22.8636C9.20927 21.9697 8.99336 20.9091 8.99336 19.6818C8.99336 18.7614 9.11647 17.9337 9.36268 17.1989C9.61268 16.4602 9.96495 15.8314 10.4195 15.3125C10.874 14.7936 11.4119 14.3958 12.0331 14.1193C12.6543 13.8428 13.3381 13.7045 14.0843 13.7045C14.6979 13.7045 15.2699 13.7973 15.8002 13.983C16.3343 14.1648 16.8097 14.4242 17.2263 14.7614C17.6468 15.0947 17.9972 15.4943 18.2775 15.9602C18.5578 16.4223 18.7509 16.9356 18.857 17.5H17.4025ZM21.7036 25.5V16.7727H23.0445V25.5H21.7036ZM22.3854 15.3182C22.124 15.3182 21.8987 15.2292 21.7093 15.0511C21.5237 14.8731 21.4309 14.6591 21.4309 14.4091C21.4309 14.1591 21.5237 13.9451 21.7093 13.767C21.8987 13.589 22.124 13.5 22.3854 13.5C22.6468 13.5 22.8703 13.589 23.0559 13.767C23.2453 13.9451 23.34 14.1591 23.34 14.4091C23.34 14.6591 23.2453 14.8731 23.0559 15.0511C22.8703 15.2292 22.6468 15.3182 22.3854 15.3182ZM29.2959 16.7727V17.9091H24.7732V16.7727H29.2959ZM26.0914 14.6818H27.4323V23C27.4323 23.3788 27.4872 23.6629 27.5971 23.8523C27.7107 24.0379 27.8546 24.1629 28.0289 24.2273C28.2069 24.2879 28.3944 24.3182 28.5914 24.3182C28.7391 24.3182 28.8603 24.3106 28.955 24.2955C29.0497 24.2765 29.1255 24.2614 29.1823 24.25L29.455 25.4545C29.3641 25.4886 29.2372 25.5227 29.0743 25.5568C28.9115 25.5947 28.705 25.6136 28.455 25.6136C28.0762 25.6136 27.705 25.5322 27.3414 25.3693C26.9815 25.2064 26.6823 24.9583 26.4436 24.625C26.2088 24.2917 26.0914 23.8712 26.0914 23.3636V14.6818ZM32.8414 20.25V25.5H31.5005V13.8636H32.8414V18.1364H32.955C33.1596 17.6856 33.4664 17.3277 33.8755 17.0625C34.2883 16.7936 34.8376 16.6591 35.5232 16.6591C36.1179 16.6591 36.6387 16.7784 37.0857 17.017C37.5327 17.2519 37.8793 17.6136 38.1255 18.1023C38.3755 18.5871 38.5005 19.2045 38.5005 19.9545V25.5H37.1596V20.0455C37.1596 19.3523 36.9796 18.8163 36.6198 18.4375C36.2637 18.0549 35.7694 17.8636 35.1368 17.8636C34.6974 17.8636 34.3035 17.9564 33.955 18.142C33.6103 18.3277 33.3376 18.5985 33.1368 18.9545C32.9399 19.3106 32.8414 19.7424 32.8414 20.25ZM46.4536 21.9318V16.7727H47.7945V25.5H46.4536V24.0227H46.3627C46.1581 24.4659 45.84 24.8428 45.4081 25.1534C44.9763 25.4602 44.4309 25.6136 43.7718 25.6136C43.2263 25.6136 42.7415 25.4943 42.3172 25.2557C41.893 25.0133 41.5597 24.6496 41.3172 24.1648C41.0748 23.6761 40.9536 23.0606 40.9536 22.3182V16.7727H42.2945V22.2273C42.2945 22.8636 42.4725 23.3712 42.8286 23.75C43.1884 24.1288 43.6468 24.3182 44.2036 24.3182C44.5369 24.3182 44.8759 24.233 45.2206 24.0625C45.5691 23.892 45.8608 23.6307 46.0956 23.2784C46.3343 22.9261 46.4536 22.4773 46.4536 21.9318ZM50.4323 25.5V13.8636H51.7732V18.1591H51.8868C51.9853 18.0076 52.1217 17.8144 52.2959 17.5795C52.474 17.3409 52.7277 17.1288 53.0573 16.9432C53.3906 16.7538 53.8414 16.6591 54.4096 16.6591C55.1444 16.6591 55.7921 16.8428 56.3527 17.2102C56.9133 17.5777 57.3508 18.0985 57.6652 18.7727C57.9796 19.447 58.1368 20.2424 58.1368 21.1591C58.1368 22.0833 57.9796 22.8845 57.6652 23.5625C57.3508 24.2367 56.9152 24.7595 56.3584 25.1307C55.8016 25.4981 55.1596 25.6818 54.4323 25.6818C53.8717 25.6818 53.4228 25.589 53.0857 25.4034C52.7486 25.214 52.4891 25 52.3073 24.7614C52.1255 24.5189 51.9853 24.3182 51.8868 24.1591H51.7277V25.5H50.4323ZM51.7505 21.1364C51.7505 21.7955 51.8471 22.3769 52.0402 22.8807C52.2334 23.3807 52.5156 23.7727 52.8868 24.0568C53.258 24.3371 53.7126 24.4773 54.2505 24.4773C54.8111 24.4773 55.2789 24.3295 55.6539 24.0341C56.0327 23.7348 56.3168 23.3333 56.5061 22.8295C56.6993 22.322 56.7959 21.7576 56.7959 21.1364C56.7959 20.5227 56.7012 19.9697 56.5118 19.4773C56.3262 18.9811 56.044 18.589 55.6652 18.3011C55.2902 18.0095 54.8186 17.8636 54.2505 17.8636C53.705 17.8636 53.2467 18.0019 52.8755 18.2784C52.5043 18.5511 52.224 18.9337 52.0346 19.4261C51.8452 19.9148 51.7505 20.4848 51.7505 21.1364Z" fill="#F4F4F4"/>
<path d="M74.9998 8.29614C68.3732 8.29614 62.9998 13.6687 62.9998 20.2962C62.9998 25.5982 66.4381 30.0963 71.2061 31.6831C71.8058 31.7941 72.0261 31.4228 72.0261 31.1058C72.0261 30.8197 72.0149 29.8743 72.0098 28.8716C68.6713 29.5975 67.9668 27.4557 67.9668 27.4557C67.421 26.0687 66.6345 25.6999 66.6345 25.6999C65.5457 24.9551 66.7165 24.9704 66.7165 24.9704C67.9216 25.0551 68.5561 26.207 68.5561 26.207C69.6263 28.0416 71.3633 27.5112 72.0481 27.2046C72.1558 26.429 72.4668 25.8997 72.81 25.6C70.1446 25.2965 67.3427 24.2675 67.3427 19.6695C67.3427 18.3594 67.8114 17.2889 68.5791 16.4485C68.4545 16.1462 68.0438 14.9257 68.6954 13.2728C68.6954 13.2728 69.703 12.9503 71.9962 14.5029C72.9534 14.2369 73.98 14.1037 74.9998 14.0991C76.0196 14.1037 77.047 14.2369 78.006 14.5029C80.2965 12.9503 81.3027 13.2728 81.3027 13.2728C81.9559 14.9257 81.545 16.1462 81.4204 16.4485C82.1898 17.2889 82.6553 18.3593 82.6553 19.6695C82.6553 24.2784 79.8481 25.2934 77.176 25.5904C77.6064 25.9628 77.9899 26.6931 77.9899 27.8126C77.9899 29.4182 77.976 30.7105 77.976 31.1058C77.976 31.4251 78.192 31.7993 78.8003 31.6815C83.5657 30.0929 86.9998 25.5964 86.9998 20.2962C86.9998 13.6687 81.6271 8.29614 74.9998 8.29614Z" fill="white"/>
<path d="M67.4941 25.3905C67.4678 25.4501 67.3739 25.468 67.2885 25.4271C67.2014 25.388 67.1525 25.3066 67.1807 25.2468C67.2066 25.1854 67.3005 25.1683 67.3874 25.2095C67.4747 25.2486 67.5243 25.3306 67.4941 25.3905ZM68.0844 25.9172C68.0272 25.9702 67.9153 25.9456 67.8393 25.8617C67.7609 25.7781 67.7462 25.6663 67.8042 25.6123C67.8633 25.5593 67.9718 25.5841 68.0504 25.6679C68.1289 25.7525 68.1442 25.8636 68.0843 25.9173L68.0844 25.9172ZM68.4894 26.591C68.4158 26.6421 68.2955 26.5942 68.2213 26.4875C68.1478 26.3809 68.1478 26.2529 68.2229 26.2016C68.2974 26.1503 68.4158 26.1964 68.4911 26.3023C68.5645 26.4108 68.5645 26.5388 68.4893 26.5911L68.4894 26.591ZM69.1742 27.3715C69.1084 27.444 68.9683 27.4246 68.8658 27.3256C68.7609 27.2288 68.7316 27.0915 68.7976 27.019C68.8642 26.9463 69.005 26.9667 69.1084 27.0649C69.2126 27.1615 69.2444 27.2998 69.1743 27.3715H69.1742ZM70.0592 27.635C70.0303 27.729 69.8954 27.7717 69.7595 27.7318C69.6238 27.6907 69.5349 27.5805 69.5623 27.4856C69.5905 27.391 69.7261 27.3465 69.863 27.3892C69.9985 27.4301 70.0876 27.5394 70.0593 27.635H70.0592ZM71.0666 27.7467C71.07 27.8458 70.9547 27.9278 70.812 27.9296C70.6685 27.9327 70.5525 27.8526 70.551 27.7553C70.551 27.6554 70.6636 27.574 70.8071 27.5717C70.9497 27.5689 71.0666 27.6484 71.0666 27.7467ZM72.0561 27.7088C72.0733 27.8054 71.9741 27.9046 71.8324 27.9309C71.6931 27.9563 71.5642 27.8968 71.5464 27.8011C71.5291 27.702 71.6302 27.6029 71.7692 27.5772C71.9111 27.5526 72.0381 27.6107 72.0561 27.7088Z" fill="white"/>
</g>
<defs>
<filter id="filter0_bi_52_293" x="-100" y="-99.7039" width="295" height="239.407" filterUnits="userSpaceOnUse" color-interpolation-filters="sRGB">
<feFlood flood-opacity="0" result="BackgroundImageFix"/>
<feGaussianBlur in="BackgroundImageFix" stdDeviation="50"/>
<feComposite in2="SourceAlpha" operator="in" result="effect1_backgroundBlur_52_293"/>
<feBlend mode="normal" in="SourceGraphic" in2="effect1_backgroundBlur_52_293" result="shape"/>
<feColorMatrix in="SourceAlpha" type="matrix" values="0 0 0 0 0 0 0 0 0 0 0 0 0 0 0 0 0 0 127 0" result="hardAlpha"/>
<feOffset dx="2" dy="4"/>
<feGaussianBlur stdDeviation="8"/>
<feComposite in2="hardAlpha" operator="arithmetic" k2="-1" k3="1"/>
<feColorMatrix type="matrix" values="0 0 0 0 0.972549 0 0 0 0 0.972549 0 0 0 0 0.972549 0 0 0 0.06 0"/>
<feBlend mode="normal" in2="shape" result="effect2_innerShadow_52_293"/>
</filter>
</defs>
</svg>
