<svg width="72" height="72" viewBox="0 0 72 72" fill="none" xmlns="http://www.w3.org/2000/svg">
<path d="M72 0H0V72H72V0Z" fill="#F7DF1E"/>
<path d="M48.3656 56.2504C49.8159 58.6184 51.7028 60.3589 55.0399 60.3589C57.8434 60.3589 59.6342 58.9578 59.6342 57.0218C59.6342 54.7018 57.7942 53.8801 54.7085 52.5304L53.0171 51.8046C48.1348 49.7246 44.8914 47.1189 44.8914 41.6104C44.8914 36.5361 48.7576 32.6732 54.7999 32.6732C59.1016 32.6732 62.1942 34.1704 64.4228 38.0904L59.1542 41.4732C57.9942 39.3932 56.7428 38.5738 54.7999 38.5738C52.8182 38.5738 51.5622 39.8309 51.5622 41.4732C51.5622 43.5029 52.8194 44.3246 55.7222 45.5818L57.4136 46.3064C63.1622 48.7715 66.4079 51.2846 66.4079 56.9349C66.4079 63.0264 61.6228 66.3635 55.1965 66.3635C48.9131 66.3635 44.8536 63.3692 42.8674 59.4446L48.3656 56.2504ZM24.4651 56.8366C25.5279 58.7224 26.4948 60.3166 28.8194 60.3166C31.0422 60.3166 32.4445 59.4469 32.4445 56.0652V33.0595H39.2102V56.1566C39.2102 63.1624 35.1028 66.3509 29.1074 66.3509C23.6902 66.3509 20.5531 63.5475 18.9576 60.1709L24.4651 56.8366Z" fill="black"/>
</svg>
