<svg width="61" height="63" viewBox="0 0 61 63" fill="none" xmlns="http://www.w3.org/2000/svg">
<path d="M60.9656 14.2062C60.9882 14.29 60.9998 14.3763 61 14.463V27.9421C61 28.1151 60.9543 28.2851 60.8676 28.4348C60.7809 28.5845 60.6562 28.7086 60.5061 28.7947L49.1929 35.3082V48.2186C49.1929 48.5699 49.0061 48.8942 48.7015 49.0712L25.086 62.6658C25.0319 62.6965 24.973 62.7161 24.914 62.737C24.8919 62.7444 24.871 62.7579 24.8477 62.764C24.6826 62.8075 24.5091 62.8075 24.344 62.764C24.317 62.7567 24.2924 62.7419 24.2666 62.7321C24.2125 62.7124 24.156 62.6952 24.1044 62.6658L0.493858 49.0712C0.343866 48.985 0.219239 48.8608 0.132536 48.7111C0.0458334 48.5614 0.000118844 48.3916 0 48.2186L0 7.78118C0 7.69273 0.012285 7.60673 0.034398 7.52319C0.041769 7.49494 0.0589681 7.46914 0.0687961 7.44088C0.0872236 7.38929 0.104423 7.33646 0.13145 7.28855C0.149877 7.25661 0.176904 7.23081 0.199017 7.20132C0.227273 7.16201 0.253071 7.12147 0.286241 7.08707C0.314496 7.05882 0.351351 7.03793 0.383292 7.01336C0.418919 6.98388 0.45086 6.95194 0.4914 6.9286H0.492629L12.2985 0.131292C12.448 0.0452725 12.6175 0 12.7899 0C12.9624 0 13.1318 0.0452725 13.2813 0.131292L25.0872 6.9286H25.0897C25.129 6.95317 25.1622 6.98388 25.1978 7.01214C25.2297 7.03671 25.2654 7.05882 25.2936 7.08585C25.328 7.12147 25.3526 7.16201 25.3821 7.20132C25.4029 7.23081 25.4312 7.25661 25.4484 7.28855C25.4767 7.33769 25.4926 7.38929 25.5123 7.44088C25.5221 7.46914 25.5393 7.49494 25.5467 7.52442C25.5693 7.60814 25.5809 7.69446 25.5811 7.78118V33.038L35.4189 27.3733V14.4618C35.4189 14.3758 35.4312 14.2886 35.4533 14.2062C35.4619 14.1768 35.4779 14.151 35.4877 14.1227C35.5074 14.0711 35.5246 14.0183 35.5516 13.9704C35.57 13.9384 35.597 13.9126 35.6179 13.8832C35.6474 13.8438 35.672 13.8033 35.7064 13.7689C35.7346 13.7406 35.7703 13.7198 35.8022 13.6952C35.8391 13.6657 35.871 13.6338 35.9103 13.6104H35.9115L47.7187 6.81312C47.8681 6.72698 48.0376 6.68164 48.2101 6.68164C48.3826 6.68164 48.552 6.72698 48.7015 6.81312L60.5074 13.6104C60.5491 13.635 60.5811 13.6657 60.6179 13.694C60.6486 13.7185 60.6843 13.7406 60.7125 13.7677C60.7469 13.8033 60.7715 13.8438 60.801 13.8832C60.8231 13.9126 60.8501 13.9384 60.8673 13.9704C60.8956 14.0183 60.9115 14.0711 60.9312 14.1227C60.9423 14.151 60.9582 14.1768 60.9656 14.2062ZM59.0319 27.3733V16.1645L54.9005 18.5429L49.1929 21.8291V33.038L59.0332 27.3733H59.0319ZM47.226 47.6498V36.4335L41.6118 39.6399L25.5799 48.7898V60.1117L47.226 47.6498ZM1.96806 9.48265V47.6498L23.6118 60.1105V48.7911L12.3047 42.3918L12.301 42.3893L12.2961 42.3869C12.258 42.3648 12.226 42.3328 12.1904 42.3058C12.1597 42.2812 12.1241 42.2616 12.0971 42.2345L12.0946 42.2309C12.0627 42.2001 12.0405 42.1621 12.0135 42.1277C11.9889 42.0945 11.9595 42.0662 11.9398 42.0318L11.9386 42.0281C11.9165 41.9913 11.9029 41.9471 11.887 41.9053C11.871 41.8684 11.8501 41.834 11.8403 41.7947V41.7935C11.828 41.7468 11.8256 41.6977 11.8206 41.6498C11.8157 41.6129 11.8059 41.5761 11.8059 41.5392V15.1473L6.09951 11.8598L1.96806 9.48388V9.48265ZM12.7912 2.11901L2.95455 7.78118L12.7887 13.4433L22.6241 7.77995L12.7887 2.11901H12.7912ZM17.9066 37.4557L23.613 34.1706V9.48265L19.4816 11.861L13.774 15.1473V39.8353L17.9066 37.4557ZM48.2101 8.80084L38.3747 14.463L48.2101 20.1252L58.0442 14.4618L48.2101 8.80084ZM47.226 21.8291L41.5184 18.5429L37.387 16.1645V27.3733L43.0934 30.6584L47.226 33.038V21.8291ZM24.5946 47.0884L39.0209 38.8525L46.2322 34.737L36.4042 29.0785L25.0885 35.5933L14.7752 41.5306L24.5946 47.0884Z" fill="#FF2D20"/>
</svg>
