<svg width="87" height="32" viewBox="0 0 87 32" fill="none" xmlns="http://www.w3.org/2000/svg">
<g filter="url(#filter0_bi_10_321)">
<rect width="87" height="32" rx="16" fill="#282828" fill-opacity="0.5"/>
<path d="M19.0973 9.86364V21.5H17.7337L11.3928 12.3636H11.2791V21.5H9.87003V9.86364H11.2337L17.5973 19.0227H17.7109V9.86364H19.0973ZM21.9169 21.5V9.86364H28.9396V11.1136H23.326V15.0455H28.576V16.2955H23.326V20.25H29.0305V21.5H21.9169ZM37.843 12.7727C37.7749 12.197 37.4983 11.75 37.0135 11.4318C36.5286 11.1136 35.9339 10.9545 35.2294 10.9545C34.7143 10.9545 34.2635 11.0379 33.8771 11.2045C33.4946 11.3712 33.1953 11.6004 32.9794 11.892C32.7673 12.1837 32.6612 12.5152 32.6612 12.8864C32.6612 13.197 32.7351 13.464 32.8828 13.6875C33.0343 13.9072 33.2275 14.0909 33.4624 14.2386C33.6972 14.3826 33.9434 14.5019 34.201 14.5966C34.4586 14.6875 34.6953 14.7614 34.9112 14.8182L36.093 15.1364C36.3961 15.2159 36.7332 15.3258 37.1044 15.4659C37.4794 15.6061 37.8374 15.7973 38.1783 16.0398C38.523 16.2784 38.8071 16.5852 39.0305 16.9602C39.254 17.3352 39.3658 17.7955 39.3658 18.3409C39.3658 18.9697 39.201 19.5379 38.8714 20.0455C38.5457 20.553 38.0684 20.9564 37.4396 21.2557C36.8146 21.5549 36.0552 21.7045 35.1612 21.7045C34.3279 21.7045 33.6063 21.5701 32.9964 21.3011C32.3904 21.0322 31.9131 20.6572 31.5646 20.1761C31.2199 19.6951 31.0249 19.1364 30.9794 18.5H32.4339C32.4718 18.9394 32.6196 19.303 32.8771 19.5909C33.1385 19.875 33.468 20.0871 33.8658 20.2273C34.2673 20.3636 34.6991 20.4318 35.1612 20.4318C35.6991 20.4318 36.1821 20.3447 36.6101 20.1705C37.0381 19.9924 37.3771 19.7462 37.6271 19.4318C37.8771 19.1136 38.0021 18.7424 38.0021 18.3182C38.0021 17.9318 37.8942 17.6174 37.6783 17.375C37.4624 17.1326 37.1783 16.9356 36.826 16.7841C36.4737 16.6326 36.093 16.5 35.6839 16.3864L34.2521 15.9773C33.343 15.7159 32.6233 15.3428 32.093 14.858C31.5627 14.3731 31.2976 13.7386 31.2976 12.9545C31.2976 12.303 31.4737 11.7348 31.826 11.25C32.1821 10.7614 32.6593 10.3826 33.2578 10.1136C33.8601 9.84091 34.5324 9.70455 35.2749 9.70455C36.0249 9.70455 36.6915 9.83901 37.2749 10.108C37.8582 10.3731 38.3203 10.7367 38.6612 11.1989C39.0059 11.661 39.1877 12.1856 39.2067 12.7727H37.843ZM41.0462 11.1136V9.86364H49.7734V11.1136H46.1143V21.5H44.7053V11.1136H41.0462Z" fill="white"/>
<path fill-rule="evenodd" clip-rule="evenodd" d="M68.866 5.5C68.7219 5.50164 68.579 5.52698 68.443 5.575C69.6513 6.3685 68.233 7.5205 68.893 8.5C68.8469 8.17212 68.8989 7.83792 69.0425 7.53958C69.1861 7.24124 69.415 6.99215 69.7 6.82375C69.9138 6.646 70.0503 6.58225 70.0045 6.28825C69.9325 5.80675 69.2905 5.5 68.866 5.5ZM70.591 5.8105C70.4245 6.65275 70.216 6.6835 69.5988 7.22575C69.3578 7.41536 69.1877 7.6806 69.1158 7.97871C69.044 8.27681 69.0746 8.59043 69.2028 8.869C66.6528 7.879 63.3843 7.2805 60.988 8.9935C60.1263 9.60925 59.5998 10.4935 58.537 10.8542C57.85 11.089 57.175 11.02 56.746 11.701C56.5886 11.8976 56.5063 12.1439 56.514 12.3957C56.5217 12.6475 56.6189 12.8883 56.788 13.075C56.9155 13.2063 57.163 13.2902 57.265 13.4237C57.3243 13.4987 57.3228 13.5737 57.379 13.6735C57.4782 13.9061 57.6219 14.1171 57.802 14.2945C57.9115 14.3853 58.291 14.4738 58.3555 14.5705C58.4358 14.6912 58.2258 15.1705 58.402 15.2455C58.5213 15.3003 58.8685 14.6875 58.9023 14.6335C58.8333 15.1158 58.7425 15.9715 59.2848 15.259C59.542 14.9207 59.5578 14.809 59.9905 14.734C60.8446 14.5877 61.7198 14.6201 62.5607 14.829C63.4017 15.0379 64.1902 15.4189 64.8765 15.9478C65.5629 16.4768 66.1321 17.1423 66.5483 17.9023C66.9645 18.6623 67.2187 19.5003 67.2948 20.3635C67.2138 19.9885 66.724 19.3885 66.268 19.531C66.0738 19.591 66.0018 19.9262 65.8743 20.1205C65.7133 20.367 65.5147 20.5866 65.2855 20.7715C65.3247 20.4079 65.3064 20.0404 65.2315 19.6825C65.095 20.2435 64.8213 21.1742 64.132 21.0235C63.9024 20.9884 63.6873 20.8896 63.5112 20.7381C63.3351 20.5867 63.2051 20.3888 63.136 20.167C63.0468 19.597 63.649 18.9287 62.6808 18.8815C60.7383 18.7862 61.1875 21.643 62.3343 22.3878C62.0707 22.4169 61.8137 22.4886 61.573 22.6C62.3009 23.023 63.1211 23.2618 63.9622 23.2957C64.8034 23.3296 65.6401 23.1576 66.3997 22.7946C67.1592 22.4316 67.8187 21.8886 68.3206 21.2128C68.8226 20.537 69.152 19.7488 69.28 18.9167C69.5472 20.1339 69.3756 21.4063 68.7955 22.5093C68.5528 22.9703 68.2418 23.3921 67.873 23.7603C67.648 23.9853 67.2025 24.2327 67.0563 24.466C67.9665 24.3457 68.856 24.1014 69.7 23.74C68.8264 24.9305 67.6652 25.88 66.325 26.5C67.7641 26.3981 69.1552 25.9397 70.3729 25.166C71.5905 24.3923 72.5965 23.3277 73.3 22.0682C73.0758 23.3279 72.5779 24.5231 71.8413 25.5693C72.832 24.906 73.6749 24.0451 74.317 23.0406C74.9591 22.036 75.3865 20.9096 75.5725 19.732C75.7569 20.5941 75.8097 21.4791 75.7293 22.357C76.5434 21.2263 77.0934 19.9274 77.3389 18.5559C77.5843 17.1844 77.5189 15.7754 77.1475 14.4325C76.8633 13.3887 76.4371 12.3888 75.8808 11.461C75.6655 11.0994 75.4299 10.7504 75.175 10.4155C75.0753 10.2857 74.542 9.811 74.542 9.6655C74.5375 9.68 74.5338 9.68 74.5308 9.6655C74.5308 12.115 71.9058 13.6488 69.7075 13.0128C70.5585 12.946 71.3612 12.5909 71.983 12.0061C72.6049 11.4214 73.0086 10.642 73.1275 9.79675C73.2279 8.94202 73.0304 8.07883 72.5685 7.3527C72.1066 6.62657 71.4077 6.08189 70.591 5.8105Z" fill="url(#paint0_linear_10_321)"/>
<path d="M65.98 24.3355L67.2325 23.5855C67.2975 23.8021 67.4257 23.9942 67.6008 24.1372C67.7759 24.2802 67.9898 24.3676 68.215 24.388C68.7175 24.388 69.04 24.193 69.04 23.4205V18.1705H70.54V23.4205C70.5721 23.6924 70.5504 23.968 70.476 24.2316C70.4016 24.4951 70.276 24.7414 70.1064 24.9564C69.9368 25.1714 69.7266 25.3509 69.4876 25.4846C69.2487 25.6183 68.9857 25.7037 68.7138 25.7358C68.558 25.753 68.4008 25.753 68.245 25.7358C67.7646 25.7614 67.2876 25.6412 66.8767 25.3909C66.4657 25.1406 66.1401 24.7719 65.9425 24.3333M71.41 24.1683L72.6625 23.4183C72.801 23.6977 73.0148 23.9329 73.2798 24.0972C73.5449 24.2615 73.8506 24.3485 74.1625 24.3483C74.3903 24.405 74.6312 24.369 74.8324 24.2482C75.0337 24.1274 75.1787 23.9317 75.2358 23.704C75.241 23.6815 75.2463 23.659 75.25 23.6357C75.25 23.1107 74.83 22.8857 74.1325 22.6157L73.75 22.45C72.64 21.9775 71.905 21.385 71.905 20.1325C71.9094 19.5877 72.1299 19.067 72.518 18.6847C72.9062 18.3025 73.4302 18.09 73.975 18.094C74.0358 18.094 74.0958 18.094 74.1565 18.103C74.6012 18.0686 75.0462 18.1671 75.4348 18.3861C75.8234 18.6052 76.1381 18.9347 76.339 19.333L75.1465 20.083C75.0685 19.8851 74.9319 19.7159 74.7549 19.5979C74.578 19.4799 74.3691 19.4189 74.1565 19.423C74.0695 19.4121 73.9812 19.4184 73.8967 19.4417C73.8122 19.4649 73.7331 19.5046 73.6639 19.5584C73.5947 19.6123 73.5369 19.6792 73.4936 19.7555C73.4503 19.8317 73.4225 19.9157 73.4118 20.0027C73.4081 20.0293 73.4064 20.0562 73.4065 20.083C73.4065 20.5405 73.6915 20.728 74.3515 21.013L74.734 21.178C76 21.7405 76.75 22.3105 76.75 23.6005C76.75 24.8905 75.6625 25.738 74.2075 25.738C73.6396 25.7747 73.0733 25.6463 72.5769 25.3681C72.0804 25.0899 71.6752 24.674 71.41 24.1705" fill="#F7DF1E"/>
</g>
<defs>
<filter id="filter0_bi_10_321" x="-100" y="-100" width="287" height="232" filterUnits="userSpaceOnUse" color-interpolation-filters="sRGB">
<feFlood flood-opacity="0" result="BackgroundImageFix"/>
<feGaussianBlur in="BackgroundImageFix" stdDeviation="50"/>
<feComposite in2="SourceAlpha" operator="in" result="effect1_backgroundBlur_10_321"/>
<feBlend mode="normal" in="SourceGraphic" in2="effect1_backgroundBlur_10_321" result="shape"/>
<feColorMatrix in="SourceAlpha" type="matrix" values="0 0 0 0 0 0 0 0 0 0 0 0 0 0 0 0 0 0 127 0" result="hardAlpha"/>
<feOffset dx="2" dy="4"/>
<feGaussianBlur stdDeviation="8"/>
<feComposite in2="hardAlpha" operator="arithmetic" k2="-1" k3="1"/>
<feColorMatrix type="matrix" values="0 0 0 0 0.972549 0 0 0 0 0.972549 0 0 0 0 0.972549 0 0 0 0.06 0"/>
<feBlend mode="normal" in2="shape" result="effect2_innerShadow_10_321"/>
</filter>
<linearGradient id="paint0_linear_10_321" x1="66.9978" y1="26.5" x2="66.9978" y2="5.5" gradientUnits="userSpaceOnUse">
<stop stop-color="#FFB199"/>
<stop offset="1" stop-color="#FF0844"/>
</linearGradient>
</defs>
</svg>
