<svg width="104" height="32" viewBox="0 0 104 32" fill="none" xmlns="http://www.w3.org/2000/svg">
<g filter="url(#filter0_bi_10_312)">
<rect width="104" height="32" rx="16" fill="#282828" fill-opacity="0.5"/>
<path d="M18.8473 9.86364V21.5H17.4837L11.1428 12.3636H11.0291V21.5H9.62003V9.86364H10.9837L17.3473 19.0227H17.4609V9.86364H18.8473ZM21.6669 21.5V9.86364H28.6896V11.1136H23.076V15.0455H28.326V16.2955H23.076V20.25H28.7805V21.5H21.6669ZM31.9112 9.86364L34.9112 14.7045H35.0021L38.0021 9.86364H39.6612L36.0021 15.6818L39.6612 21.5H38.0021L35.0021 16.75H34.9112L31.9112 21.5H30.2521L34.0021 15.6818L30.2521 9.86364H31.9112ZM40.8587 11.1136V9.86364H49.5859V11.1136H45.9268V21.5H44.5178V11.1136H40.8587ZM54.7621 9.86364H56.1712V18.1818C56.1712 18.9242 56.0348 19.5549 55.7621 20.0739C55.4893 20.5928 55.1049 20.9867 54.6087 21.2557C54.1125 21.5246 53.5272 21.6591 52.853 21.6591C52.2166 21.6591 51.6503 21.5436 51.1541 21.3125C50.6579 21.0777 50.2678 20.7443 49.9837 20.3125C49.6996 19.8807 49.5575 19.3674 49.5575 18.7727H50.9439C50.9439 19.1023 51.0253 19.3902 51.1882 19.6364C51.3549 19.8788 51.5821 20.0682 51.87 20.2045C52.1579 20.3409 52.4856 20.4091 52.853 20.4091C53.2583 20.4091 53.603 20.3239 53.8871 20.1534C54.1712 19.983 54.3871 19.733 54.5348 19.4034C54.6863 19.0701 54.7621 18.6629 54.7621 18.1818V9.86364ZM65.3587 12.7727C65.2905 12.197 65.014 11.75 64.5291 11.4318C64.0443 11.1136 63.4496 10.9545 62.745 10.9545C62.2299 10.9545 61.7791 11.0379 61.3928 11.2045C61.0102 11.3712 60.7109 11.6004 60.495 11.892C60.2829 12.1837 60.1768 12.5152 60.1768 12.8864C60.1768 13.197 60.2507 13.464 60.3984 13.6875C60.55 13.9072 60.7431 14.0909 60.978 14.2386C61.2128 14.3826 61.459 14.5019 61.7166 14.5966C61.9742 14.6875 62.2109 14.7614 62.4268 14.8182L63.6087 15.1364C63.9117 15.2159 64.2488 15.3258 64.62 15.4659C64.995 15.6061 65.353 15.7973 65.6939 16.0398C66.0386 16.2784 66.3227 16.5852 66.5462 16.9602C66.7697 17.3352 66.8814 17.7955 66.8814 18.3409C66.8814 18.9697 66.7166 19.5379 66.3871 20.0455C66.0613 20.553 65.584 20.9564 64.9553 21.2557C64.3303 21.5549 63.5708 21.7045 62.6768 21.7045C61.8435 21.7045 61.1219 21.5701 60.5121 21.3011C59.906 21.0322 59.4287 20.6572 59.0803 20.1761C58.7356 19.6951 58.5405 19.1364 58.495 18.5H59.9496C59.9875 18.9394 60.1352 19.303 60.3928 19.5909C60.6541 19.875 60.9837 20.0871 61.3814 20.2273C61.7829 20.3636 62.2147 20.4318 62.6768 20.4318C63.2147 20.4318 63.6977 20.3447 64.1257 20.1705C64.5537 19.9924 64.8928 19.7462 65.1428 19.4318C65.3928 19.1136 65.5178 18.7424 65.5178 18.3182C65.5178 17.9318 65.4098 17.6174 65.1939 17.375C64.978 17.1326 64.6939 16.9356 64.3416 16.7841C63.9893 16.6326 63.6087 16.5 63.1996 16.3864L61.7678 15.9773C60.8587 15.7159 60.139 15.3428 59.6087 14.858C59.0784 14.3731 58.8132 13.7386 58.8132 12.9545C58.8132 12.303 58.9893 11.7348 59.3416 11.25C59.6977 10.7614 60.175 10.3826 60.7734 10.1136C61.3757 9.84091 62.0481 9.70455 62.7905 9.70455C63.5405 9.70455 64.2071 9.83901 64.7905 10.108C65.3738 10.3731 65.8359 10.7367 66.1768 11.1989C66.5215 11.661 66.7034 12.1856 66.7223 12.7727H65.3587Z" fill="white"/>
<g clip-path="url(#clip0_10_312)">
<path d="M83.2665 4.80603C83.2183 4.81041 83.0651 4.82573 82.9271 4.83668C79.7456 5.12348 76.7655 6.8399 74.878 9.47803C73.827 10.9449 73.1548 12.6088 72.9008 14.3712C72.811 14.9863 72.8 15.1681 72.8 16.0022C72.8 16.8363 72.811 17.018 72.9008 17.6332C73.5095 21.8389 76.5027 25.3725 80.5623 26.6817C81.2893 26.9159 82.0556 27.0758 82.9271 27.1721C83.2665 27.2093 84.7336 27.2093 85.073 27.1721C86.5773 27.0057 87.8516 26.6335 89.1085 25.992C89.3012 25.8935 89.3384 25.8673 89.3121 25.8454C89.2946 25.8322 88.4735 24.731 87.4881 23.3999L85.697 20.9807L83.4526 17.6595C82.2177 15.8336 81.2017 14.3405 81.1929 14.3405C81.1842 14.3383 81.1754 15.8139 81.171 17.6157C81.1645 20.7705 81.1623 20.8975 81.1229 20.9719C81.0659 21.0792 81.0221 21.123 80.9302 21.1712C80.8601 21.2062 80.7988 21.2128 80.4682 21.2128H80.0894L79.9886 21.1493C79.9229 21.1077 79.8748 21.0529 79.8419 20.9895L79.7959 20.8909L79.8003 16.5014L79.8069 12.1096L79.8748 12.0242C79.9098 11.9782 79.9843 11.9191 80.0368 11.8907C80.1266 11.8469 80.1616 11.8425 80.5404 11.8425C80.9871 11.8425 81.0616 11.86 81.1776 11.987C81.2104 12.022 82.4257 13.8523 83.8796 16.0569C85.3335 18.2616 87.3217 21.2719 88.2983 22.7497L90.0719 25.436L90.1617 25.3768C90.9565 24.8602 91.7973 24.1246 92.463 23.3583C93.8797 21.7316 94.7928 19.7481 95.0993 17.6332C95.1891 17.018 95.2 16.8363 95.2 16.0022C95.2 15.1681 95.1891 14.9863 95.0993 14.3712C94.4906 10.1655 91.4974 6.63192 87.4378 5.32271C86.7218 5.09064 85.9598 4.93082 85.1058 4.83449C84.8956 4.8126 83.4483 4.78851 83.2665 4.80603ZM87.8516 11.5798C87.9567 11.6323 88.0421 11.733 88.0728 11.8381C88.0903 11.895 88.0947 13.1123 88.0903 15.8555L88.0837 19.7919L87.3896 18.7279L86.6933 17.6639V14.8024C86.6933 12.9525 86.7021 11.9125 86.7152 11.8622C86.7502 11.7396 86.8269 11.6433 86.932 11.5863C87.0217 11.5404 87.0546 11.536 87.3984 11.536C87.7224 11.536 87.7794 11.5404 87.8516 11.5798Z" fill="black" stroke="#FAFAFA"/>
</g>
</g>
<defs>
<filter id="filter0_bi_10_312" x="-100" y="-100" width="304" height="232" filterUnits="userSpaceOnUse" color-interpolation-filters="sRGB">
<feFlood flood-opacity="0" result="BackgroundImageFix"/>
<feGaussianBlur in="BackgroundImageFix" stdDeviation="50"/>
<feComposite in2="SourceAlpha" operator="in" result="effect1_backgroundBlur_10_312"/>
<feBlend mode="normal" in="SourceGraphic" in2="effect1_backgroundBlur_10_312" result="shape"/>
<feColorMatrix in="SourceAlpha" type="matrix" values="0 0 0 0 0 0 0 0 0 0 0 0 0 0 0 0 0 0 127 0" result="hardAlpha"/>
<feOffset dx="2" dy="4"/>
<feGaussianBlur stdDeviation="8"/>
<feComposite in2="hardAlpha" operator="arithmetic" k2="-1" k3="1"/>
<feColorMatrix type="matrix" values="0 0 0 0 0.972549 0 0 0 0 0.972549 0 0 0 0 0.972549 0 0 0 0.06 0"/>
<feBlend mode="normal" in2="shape" result="effect2_innerShadow_10_312"/>
</filter>
<clipPath id="clip0_10_312">
<rect width="24" height="24" fill="white" transform="translate(72 4)"/>
</clipPath>
</defs>
</svg>
