<svg width="100" height="100" viewBox="0 0 100 100" fill="none" xmlns="http://www.w3.org/2000/svg">
<g clip-path="url(#clip0_42_382)">
<path d="M64.835 41.0074H79.9889V43.8575H73.9775V58.8513H70.9715V43.8575H64.835V41.0074Z" fill="white"/>
<path d="M39.9125 41.0074V43.8575H27.7656V48.4424H37.5341V51.2924H27.7656V56.0012H39.9125V58.8513H24.7599V43.8575H24.7587V41.0074H39.9125Z" fill="white"/>
<path d="M47.4793 41.0149H43.5458L57.6349 58.8587H61.5799L54.5345 49.9429L61.5687 41.0285L57.6349 41.0347L52.5651 47.4507L47.4793 41.0149Z" fill="white"/>
<path d="M51.5157 53.7608L49.5458 51.2651L43.5344 58.8723H47.4792L51.5157 53.7608Z" fill="white"/>
<path fill-rule="evenodd" clip-rule="evenodd" d="M24.8653 58.8513L10.7571 41H7V58.8438H10.0057V44.8141L21.0893 58.8513H24.8653Z" fill="white"/>
<path d="M80.6644 58.7423C80.4443 58.7423 80.257 58.6646 80.1003 58.5092C79.9435 58.3538 79.866 58.1656 79.868 57.9428C79.866 57.726 79.9435 57.5399 80.1003 57.3845C80.257 57.2291 80.4443 57.1514 80.6644 57.1514C80.8762 57.1514 81.0614 57.2291 81.2182 57.3845C81.3772 57.5399 81.4565 57.726 81.4587 57.9428C81.4565 58.09 81.4198 58.2249 81.3465 58.3456C81.2712 58.4683 81.1756 58.5644 81.0553 58.6339C80.9371 58.7055 80.8068 58.7423 80.6644 58.7423Z" fill="white"/>
<path d="M85.7947 51.2252H87.1266V56.4541C87.1246 56.9346 87.0226 57.3456 86.8232 57.6912C86.6216 58.0368 86.3425 58.3006 85.9841 58.4867C85.6277 58.6707 85.2102 58.7648 84.7357 58.7648C84.3018 58.7648 83.9129 58.6851 83.5667 58.5296C83.2204 58.3742 82.9455 58.1411 82.7439 57.8344C82.5401 57.5276 82.4403 57.1452 82.4403 56.6872H83.7745C83.7764 56.8876 83.8213 57.0614 83.9067 57.2066C83.9922 57.3518 84.1103 57.4622 84.2611 57.5399C84.4137 57.6176 84.589 57.6565 84.7864 57.6565C85.0004 57.6565 85.1837 57.6115 85.3323 57.5194C85.4809 57.4295 85.5951 57.2945 85.6745 57.1146C85.7518 56.9367 85.7927 56.7158 85.7947 56.4541V51.2252Z" fill="white"/>
<path d="M92.607 53.2701C92.5745 52.9531 92.4319 52.7057 92.1834 52.5299C91.9328 52.3519 91.6091 52.264 91.2119 52.264C90.933 52.264 90.6927 52.307 90.4931 52.3908C90.2935 52.4767 90.1387 52.5912 90.0327 52.7364C89.927 52.8816 89.874 53.0472 89.8698 53.2333C89.8698 53.3887 89.9064 53.5237 89.9778 53.6362C90.0491 53.7507 90.1447 53.8468 90.269 53.9245C90.3911 54.0042 90.5276 54.0697 90.6764 54.1228C90.827 54.176 90.9778 54.221 91.1284 54.2578L91.8229 54.4316C92.102 54.4971 92.3729 54.585 92.6315 54.6975C92.89 54.8079 93.1243 54.949 93.3299 55.1187C93.5357 55.2884 93.6987 55.4929 93.8188 55.7322C93.9389 55.9714 94.0001 56.2516 94.0001 56.5747C94.0001 57.0102 93.8901 57.3926 93.668 57.7239C93.446 58.0531 93.1263 58.3108 92.7068 58.4969C92.2892 58.681 91.7842 58.775 91.1896 58.775C90.6152 58.775 90.1142 58.685 89.6927 58.5051C89.2692 58.3272 88.9391 58.0654 88.7008 57.7219C88.4625 57.3783 88.3342 56.9591 88.3159 56.4663H89.6357C89.654 56.7239 89.7355 56.9387 89.874 57.1125C90.0144 57.2843 90.1977 57.4111 90.4218 57.4969C90.6479 57.5808 90.9003 57.6237 91.1794 57.6237C91.4707 57.6237 91.7272 57.5787 91.9492 57.4908C92.1691 57.4029 92.3422 57.2802 92.4665 57.1207C92.5928 56.9632 92.656 56.7771 92.658 56.5645C92.656 56.3702 92.5988 56.2086 92.4888 56.0818C92.3769 55.9551 92.2221 55.8487 92.0245 55.7629C91.8251 55.677 91.5928 55.5993 91.328 55.5318L90.485 55.315C89.876 55.1576 89.3933 54.9183 89.0408 54.5973C88.6867 54.2762 88.5113 53.8509 88.5113 53.3172C88.5113 52.8796 88.6295 52.4951 88.8679 52.1659C89.104 51.8367 89.4279 51.581 89.8373 51.399C90.2487 51.215 90.7131 51.125 91.2302 51.125C91.7557 51.125 92.2159 51.215 92.6131 51.399C93.0102 51.581 93.322 51.8346 93.5478 52.1577C93.774 52.4808 93.8921 52.8509 93.8983 53.2701H92.607Z" fill="white"/>
</g>
<defs>
<clipPath id="clip0_42_382">
<rect width="87" height="18" fill="white" transform="translate(7 41)"/>
</clipPath>
</defs>
</svg>
