<svg width="72" height="72" viewBox="0 0 72 72" fill="none" xmlns="http://www.w3.org/2000/svg">
<path d="M62.9999 39.376H62.9199L8.91997 37.996C7.29197 37.956 5.99597 36.624 5.99597 34.996V19.746C5.99597 13.682 10.928 8.746 16.996 8.746H24.8C28.148 8.746 31.276 10.246 33.38 12.858L34.892 14.746H54.9959C61.0639 14.746 65.9959 19.682 65.9959 25.746V36.372C65.9959 37.18 65.6679 37.956 65.0879 38.52C64.5239 39.068 63.7759 39.372 62.9959 39.372L62.9999 39.376Z" fill="#EED4F1"/>
<g filter="url(#filter0_ddd_14_6565)">
<rect x="9.66479" y="19.5121" width="23" height="23" rx="2" transform="rotate(-7.1113 9.66479 19.5121)" fill="#303030"/>
<rect x="8.54869" y="18.6436" width="25" height="25" rx="3" transform="rotate(-7.1113 8.54869 18.6436)" stroke="#F5F5F5" stroke-width="2"/>
<path d="M22.6951 31.0637C23.4611 30.9681 23.9948 30.1906 23.887 29.327C23.7793 28.4634 23.071 27.8408 22.305 27.9364C21.539 28.0319 21.0054 28.8095 21.1131 29.6731C21.2208 30.5366 21.9291 31.1592 22.6951 31.0637Z" fill="#61DAFB"/>
<path d="M22.6951 31.0637C23.4611 30.9681 23.9948 30.1906 23.887 29.327C23.7793 28.4634 23.071 27.8408 22.305 27.9364C21.539 28.0319 21.0054 28.8095 21.1131 29.6731C21.2208 30.5366 21.9291 31.1592 22.6951 31.0637Z" stroke="#61DAFB"/>
<path d="M22.8997 32.7036C27.01 32.1908 30.1631 30.3408 29.9424 28.5715C29.7216 26.8022 26.2107 25.7836 22.1004 26.2964C17.9901 26.8092 14.837 28.6592 15.0578 30.4285C15.2785 32.1978 18.7895 33.2164 22.8997 32.7036Z" stroke="#61DAFB"/>
<path d="M20.239 31.4088C22.7948 35.1655 25.879 37.3562 27.1277 36.302C28.3765 35.2478 27.3169 31.3479 24.7611 27.5912C22.2053 23.8345 19.1211 21.6438 17.8724 22.698C16.6236 23.7522 17.6832 27.6522 20.239 31.4088Z" stroke="#61DAFB"/>
<path d="M19.8393 28.2052C18.2848 32.4747 18.2159 36.5154 19.6854 37.2305C21.1549 37.9456 23.6063 35.0642 25.1608 30.7948C26.7153 26.5253 26.7842 22.4846 25.3147 21.7695C23.8452 21.0544 21.3938 23.9358 19.8393 28.2052Z" stroke="#61DAFB"/>
</g>
<g filter="url(#filter1_ddd_14_6565)">
<rect x="24" y="10" width="23" height="23" rx="4" fill="#303030"/>
<rect x="23" y="9" width="25" height="25" rx="5" stroke="#F5F5F5" stroke-width="2"/>
<path d="M36 16C33.5999 16 32.1 17.2222 31.4999 19.6665C32.4 18.4443 33.45 17.9861 34.6499 18.2915C35.3347 18.4658 35.824 18.9719 36.3658 19.5319C37.2481 20.4441 38.2693 21.4999 40.5001 21.4999C42.9 21.4999 44.4002 20.2776 45 17.8331C44.1001 19.0554 43.0501 19.5138 41.8499 19.2083C41.1655 19.0341 40.6761 18.528 40.1344 17.968C39.252 17.0558 38.2306 16 36 16ZM31.4999 21.4999C29.1 21.4999 27.5998 22.7221 27 25.1666C27.8999 23.9444 28.9499 23.486 30.1501 23.7917C30.8345 23.9662 31.3239 24.472 31.8657 25.0318C32.748 25.944 33.7694 27 36 27C38.4001 27 39.9 25.7778 40.5001 23.3333C39.6 24.5555 38.55 25.0139 37.3501 24.7082C36.6654 24.5342 36.176 24.0279 35.6342 23.4681C34.7519 22.5559 33.7307 21.4999 31.4999 21.4999Z" fill="#06B6D4"/>
</g>
<g filter="url(#filter2_ddd_14_6565)">
<rect x="42.7211" y="15.8094" width="23" height="23" rx="4" transform="rotate(12.3305 42.7211 15.8094)" fill="#303030"/>
<rect x="41.9577" y="14.619" width="25" height="25" rx="5" transform="rotate(12.3305 41.9577 14.619)" stroke="#F5F5F5" stroke-width="2"/>
<g clip-path="url(#clip0_14_6565)">
<path d="M45.7747 20.5715L60.4286 23.7747L57.2254 38.4287L42.5714 35.2254L45.7747 20.5715Z" fill="#017ACB"/>
<path d="M51.6246 27.5361L52.3275 27.6897L52.0623 28.9033L50.1618 28.4878L48.9816 33.8869L48.9282 33.8896C48.8556 33.8929 47.9511 33.6952 47.761 33.6321L47.6083 33.5843L48.788 28.1875L46.8876 27.7721L47.1528 26.5586L47.7565 26.6833C48.0873 26.7508 48.9344 26.936 49.6387 27.0948C50.3429 27.2535 51.2354 27.451 51.6246 27.5361ZM55.669 34.749C55.3251 34.9833 54.9891 35.0825 54.4604 35.1085C54.2299 35.1205 54.1928 35.1148 53.7033 35.0054C53.2138 34.896 53.1748 34.8875 52.9502 34.7736C52.3688 34.481 51.9395 34.0633 51.6963 33.5519C51.6271 33.4072 51.5252 33.1162 51.5322 33.0842C51.5342 33.075 51.5616 33.0594 51.5944 33.0522C51.6272 33.0449 51.6975 33.0195 51.7544 33.0008C51.8112 32.982 51.9148 32.9471 51.9837 32.9285C52.0525 32.91 52.2541 32.8437 52.4303 32.7839C52.6066 32.724 52.765 32.6795 52.7811 32.683C52.7971 32.6865 52.8199 32.7251 52.8342 32.769C52.9211 33.0303 53.1771 33.3957 53.3817 33.546C53.5084 33.6361 53.803 33.7701 53.9518 33.8026C54.0892 33.8326 54.3541 33.8282 54.5027 33.7959C54.6614 33.761 54.7492 33.7106 54.8652 33.5968C54.9453 33.516 54.9577 33.4923 54.9944 33.3132C55.0305 33.1483 55.0313 33.1005 55.002 33.015C54.9199 32.7763 54.7699 32.6283 54.1327 32.1628C53.4752 31.6808 53.1898 31.4169 52.9807 31.1001C52.8259 30.8647 52.7985 30.8035 52.7274 30.5361C52.6347 30.1919 52.6361 30.0867 52.7344 29.626C52.8027 29.3026 52.8326 29.1988 52.8909 29.0964C52.9751 28.942 53.2003 28.6578 53.2888 28.5932C53.4729 28.4535 53.5371 28.4123 53.6586 28.3502C54.0261 28.1618 54.5485 28.0984 55.0168 28.184C55.0695 28.1955 55.2415 28.2427 55.4016 28.2897C55.8602 28.4307 56.1534 28.6148 56.4067 28.9269C56.5979 29.1606 56.8541 29.6676 56.8073 29.7174C56.7769 29.7467 55.7301 30.1561 55.6666 30.1614C55.6275 30.1648 55.6053 30.1456 55.5679 30.075C55.3381 29.6337 55.2297 29.5261 54.9314 29.4417C54.7192 29.3809 54.5992 29.3811 54.434 29.4457C54.2608 29.5134 54.154 29.6508 54.1075 29.8637C54.0417 30.1756 54.1287 30.3482 54.5208 30.6618C54.7742 30.8635 54.9919 31.0311 55.0102 31.0351C55.0377 31.0411 55.562 31.4628 55.6954 31.5879C56.3182 32.1631 56.5149 32.6571 56.4283 33.4155C56.3611 33.9862 56.0915 34.4623 55.669 34.749Z" fill="white"/>
</g>
<rect x="46.1563" y="21.1666" width="14" height="14" rx="3.5" transform="rotate(12.3305 46.1563 21.1666)" stroke="url(#paint0_linear_14_6565)" stroke-opacity="0.17"/>
</g>
<g filter="url(#filter3_ii_14_6565)">
<path d="M55 60.25H17C10.932 60.25 6 55.318 6 49.25V32C6 25.932 10.932 21 17 21H55C61.068 21 66 25.932 66 32V49.25C66 55.318 61.068 60.25 55 60.25Z" fill="#EBC4EE"/>
</g>
<defs>
<filter id="filter0_ddd_14_6565" x="7.89661" y="13.8966" width="34.2068" height="31.2068" filterUnits="userSpaceOnUse" color-interpolation-filters="sRGB">
<feFlood flood-opacity="0" result="BackgroundImageFix"/>
<feColorMatrix in="SourceAlpha" type="matrix" values="0 0 0 0 0 0 0 0 0 0 0 0 0 0 0 0 0 0 127 0" result="hardAlpha"/>
<feOffset dx="1"/>
<feGaussianBlur stdDeviation="0.5"/>
<feColorMatrix type="matrix" values="0 0 0 0 0.490196 0 0 0 0 0.490196 0 0 0 0 0.490196 0 0 0 0.09 0"/>
<feBlend mode="normal" in2="BackgroundImageFix" result="effect1_dropShadow_14_6565"/>
<feColorMatrix in="SourceAlpha" type="matrix" values="0 0 0 0 0 0 0 0 0 0 0 0 0 0 0 0 0 0 127 0" result="hardAlpha"/>
<feOffset dx="2"/>
<feGaussianBlur stdDeviation="0.5"/>
<feColorMatrix type="matrix" values="0 0 0 0 0.490196 0 0 0 0 0.490196 0 0 0 0 0.490196 0 0 0 0.05 0"/>
<feBlend mode="normal" in2="effect1_dropShadow_14_6565" result="effect2_dropShadow_14_6565"/>
<feColorMatrix in="SourceAlpha" type="matrix" values="0 0 0 0 0 0 0 0 0 0 0 0 0 0 0 0 0 0 127 0" result="hardAlpha"/>
<feOffset dx="4"/>
<feGaussianBlur stdDeviation="0.5"/>
<feColorMatrix type="matrix" values="0 0 0 0 0.490196 0 0 0 0 0.490196 0 0 0 0 0.490196 0 0 0 0.01 0"/>
<feBlend mode="normal" in2="effect2_dropShadow_14_6565" result="effect3_dropShadow_14_6565"/>
<feBlend mode="normal" in="SourceGraphic" in2="effect3_dropShadow_14_6565" result="shape"/>
</filter>
<filter id="filter1_ddd_14_6565" x="22" y="7" width="32" height="29" filterUnits="userSpaceOnUse" color-interpolation-filters="sRGB">
<feFlood flood-opacity="0" result="BackgroundImageFix"/>
<feColorMatrix in="SourceAlpha" type="matrix" values="0 0 0 0 0 0 0 0 0 0 0 0 0 0 0 0 0 0 127 0" result="hardAlpha"/>
<feOffset dx="1"/>
<feGaussianBlur stdDeviation="0.5"/>
<feColorMatrix type="matrix" values="0 0 0 0 0.490196 0 0 0 0 0.490196 0 0 0 0 0.490196 0 0 0 0.09 0"/>
<feBlend mode="normal" in2="BackgroundImageFix" result="effect1_dropShadow_14_6565"/>
<feColorMatrix in="SourceAlpha" type="matrix" values="0 0 0 0 0 0 0 0 0 0 0 0 0 0 0 0 0 0 127 0" result="hardAlpha"/>
<feOffset dx="2"/>
<feGaussianBlur stdDeviation="0.5"/>
<feColorMatrix type="matrix" values="0 0 0 0 0.490196 0 0 0 0 0.490196 0 0 0 0 0.490196 0 0 0 0.05 0"/>
<feBlend mode="normal" in2="effect1_dropShadow_14_6565" result="effect2_dropShadow_14_6565"/>
<feColorMatrix in="SourceAlpha" type="matrix" values="0 0 0 0 0 0 0 0 0 0 0 0 0 0 0 0 0 0 127 0" result="hardAlpha"/>
<feOffset dx="4"/>
<feGaussianBlur stdDeviation="0.5"/>
<feColorMatrix type="matrix" values="0 0 0 0 0.490196 0 0 0 0 0.490196 0 0 0 0 0.490196 0 0 0 0.01 0"/>
<feBlend mode="normal" in2="effect2_dropShadow_14_6565" result="effect3_dropShadow_14_6565"/>
<feBlend mode="normal" in="SourceGraphic" in2="effect3_dropShadow_14_6565" result="shape"/>
</filter>
<filter id="filter2_ddd_14_6565" x="36.5701" y="13.5701" width="34.8597" height="31.8598" filterUnits="userSpaceOnUse" color-interpolation-filters="sRGB">
<feFlood flood-opacity="0" result="BackgroundImageFix"/>
<feColorMatrix in="SourceAlpha" type="matrix" values="0 0 0 0 0 0 0 0 0 0 0 0 0 0 0 0 0 0 127 0" result="hardAlpha"/>
<feOffset dx="1"/>
<feGaussianBlur stdDeviation="0.5"/>
<feColorMatrix type="matrix" values="0 0 0 0 0.490196 0 0 0 0 0.490196 0 0 0 0 0.490196 0 0 0 0.09 0"/>
<feBlend mode="normal" in2="BackgroundImageFix" result="effect1_dropShadow_14_6565"/>
<feColorMatrix in="SourceAlpha" type="matrix" values="0 0 0 0 0 0 0 0 0 0 0 0 0 0 0 0 0 0 127 0" result="hardAlpha"/>
<feOffset dx="2"/>
<feGaussianBlur stdDeviation="0.5"/>
<feColorMatrix type="matrix" values="0 0 0 0 0.490196 0 0 0 0 0.490196 0 0 0 0 0.490196 0 0 0 0.05 0"/>
<feBlend mode="normal" in2="effect1_dropShadow_14_6565" result="effect2_dropShadow_14_6565"/>
<feColorMatrix in="SourceAlpha" type="matrix" values="0 0 0 0 0 0 0 0 0 0 0 0 0 0 0 0 0 0 127 0" result="hardAlpha"/>
<feOffset dx="4"/>
<feGaussianBlur stdDeviation="0.5"/>
<feColorMatrix type="matrix" values="0 0 0 0 0.490196 0 0 0 0 0.490196 0 0 0 0 0.490196 0 0 0 0.01 0"/>
<feBlend mode="normal" in2="effect2_dropShadow_14_6565" result="effect3_dropShadow_14_6565"/>
<feBlend mode="normal" in="SourceGraphic" in2="effect3_dropShadow_14_6565" result="shape"/>
</filter>
<filter id="filter3_ii_14_6565" x="6" y="21" width="60" height="39.25" filterUnits="userSpaceOnUse" color-interpolation-filters="sRGB">
<feFlood flood-opacity="0" result="BackgroundImageFix"/>
<feBlend mode="normal" in="SourceGraphic" in2="BackgroundImageFix" result="shape"/>
<feColorMatrix in="SourceAlpha" type="matrix" values="0 0 0 0 0 0 0 0 0 0 0 0 0 0 0 0 0 0 127 0" result="hardAlpha"/>
<feOffset dy="-1"/>
<feComposite in2="hardAlpha" operator="arithmetic" k2="-1" k3="1"/>
<feColorMatrix type="matrix" values="0 0 0 0 0.995739 0 0 0 0 0.940348 0 0 0 0 1 0 0 0 1 0"/>
<feBlend mode="overlay" in2="shape" result="effect1_innerShadow_14_6565"/>
<feColorMatrix in="SourceAlpha" type="matrix" values="0 0 0 0 0 0 0 0 0 0 0 0 0 0 0 0 0 0 127 0" result="hardAlpha"/>
<feOffset dy="1"/>
<feComposite in2="hardAlpha" operator="arithmetic" k2="-1" k3="1"/>
<feColorMatrix type="matrix" values="0 0 0 0 0.993732 0 0 0 0 0.939404 0 0 0 0 1 0 0 0 1 0"/>
<feBlend mode="normal" in2="effect1_innerShadow_14_6565" result="effect2_innerShadow_14_6565"/>
</filter>
<linearGradient id="paint0_linear_14_6565" x1="58.6318" y1="23.6799" x2="47.3904" y2="32.2255" gradientUnits="userSpaceOnUse">
<stop stop-color="white"/>
<stop offset="1" stop-color="white" stop-opacity="0"/>
</linearGradient>
<clipPath id="clip0_14_6565">
<rect x="45.7747" y="20.5714" width="15" height="15" rx="4" transform="rotate(12.3305 45.7747 20.5714)" fill="white"/>
</clipPath>
</defs>
</svg>
