<svg width="78" height="76" viewBox="0 0 78 76" fill="none" xmlns="http://www.w3.org/2000/svg">
<path d="M39 44.7004C42.7053 44.7004 45.7091 41.7005 45.7091 38C45.7091 34.2995 42.7053 31.2997 39 31.2997C35.2947 31.2997 32.2909 34.2995 32.2909 38C32.2909 41.7005 35.2947 44.7004 39 44.7004Z" fill="#61DAFB"/>
<path d="M39 51.7275C58.8823 51.7275 75 45.5815 75 38C75 30.4185 58.8823 24.2725 39 24.2725C19.1177 24.2725 3 30.4185 3 38C3 45.5815 19.1177 51.7275 39 51.7275Z" stroke="#61DAFB" stroke-width="5"/>
<path d="M27.0961 44.8638C37.0372 62.0598 50.4257 72.927 57 69.1362C63.5744 65.3455 60.8451 48.3323 50.9039 31.1362C40.9628 13.9402 27.5744 3.07301 21 6.86376C14.4257 10.6545 17.155 27.6677 27.0961 44.8638Z" stroke="#61DAFB" stroke-width="5"/>
<path d="M27.0961 31.1363C17.155 48.3323 14.4257 65.3455 21 69.1362C27.5744 72.927 40.9628 62.0598 50.9039 44.8638C60.8451 27.6677 63.5744 10.6545 57 6.86378C50.4257 3.07303 37.0372 13.9402 27.0961 31.1363Z" stroke="#61DAFB" stroke-width="5"/>
</svg>
