<svg width="78" height="78" viewBox="0 0 78 78" fill="none" xmlns="http://www.w3.org/2000/svg">
<path d="M39 19C29.9331 19 24.2665 23.5322 21.9996 32.5957C25.4 28.0635 29.3667 26.3646 33.8998 27.4972C36.4865 28.1435 38.3351 30.0201 40.3818 32.0966C43.715 35.4792 47.5729 39.394 56.0004 39.394C65.0665 39.394 70.7339 34.8618 73 25.7974C69.6004 30.3296 65.6337 32.0294 61.0998 30.8968C58.514 30.2505 56.6654 28.3739 54.6187 26.2974C51.2854 22.9149 47.4267 19 39 19ZM21.9996 39.394C12.9335 39.394 7.2661 43.9262 5 52.9906C8.39957 48.4584 12.3663 46.7586 16.9002 47.8921C19.486 48.5392 21.3346 50.415 23.3813 52.4906C26.7146 55.8732 30.5733 59.7889 39 59.7889C48.067 59.7889 53.7335 55.2567 56.0004 46.1923C52.6 50.7245 48.6333 52.4243 44.1002 51.2908C41.5135 50.6454 39.665 48.7679 37.6182 46.6923C34.285 43.3097 30.4271 39.394 21.9996 39.394Z" fill="#06B6D4"/>
</svg>
