<svg width="68" height="68" viewBox="0 0 68 68" fill="none" xmlns="http://www.w3.org/2000/svg">
<g clip-path="url(#clip0_10_6452)">
<path d="M0 0.000488281H68V68.0002H0V0.000488281Z" fill="#017ACB"/>
<path d="M32.6507 25.1815H35.9126V30.8128H27.0938V55.8665L26.86 55.9303C26.5413 56.0153 22.3444 56.0153 21.4413 55.9197L20.7188 55.8559V30.8128H11.9V25.1815L14.6944 25.1497C16.2244 25.1284 20.1556 25.1284 23.4282 25.1497C26.7007 25.1709 30.8444 25.1815 32.6507 25.1815ZM57.5451 53.2103C56.2489 54.5809 54.857 55.3459 52.5407 55.9728C51.5313 56.249 51.3613 56.2597 49.0876 56.249C46.8138 56.2384 46.6332 56.2384 45.5282 55.9515C42.6701 55.2184 40.3644 53.784 38.7919 51.7547C38.3457 51.1809 37.6126 49.9909 37.6126 49.8422C37.6126 49.7997 37.7188 49.704 37.8569 49.6403C37.9951 49.5765 38.2819 49.3959 38.5157 49.2578C38.7494 49.1197 39.1744 48.8647 39.4613 48.7159C39.7482 48.5672 40.5769 48.0784 41.2995 47.6428C42.022 47.2072 42.6807 46.8565 42.7551 46.8565C42.8295 46.8565 42.9676 47.0053 43.0738 47.1859C43.7113 48.259 45.1988 49.6297 46.2507 50.0972C46.8988 50.3734 48.3332 50.6815 49.0238 50.6815C49.6613 50.6815 50.8301 50.4053 51.457 50.1184C52.1263 49.8103 52.4664 49.5022 52.8701 48.8859C53.1464 48.4503 53.1782 48.3334 53.1676 47.5047C53.1676 46.7397 53.1251 46.5272 52.9126 46.1765C52.3176 45.199 51.5101 44.689 48.2376 43.244C44.8588 41.7459 43.3395 40.8534 42.1069 39.6528C41.1932 38.7603 41.0126 38.5159 40.4388 37.4003C39.6951 35.9659 39.5994 35.4984 39.5888 33.3628C39.5782 31.8647 39.6101 31.3759 39.7694 30.8659C39.9926 30.1009 40.7151 28.624 41.0444 28.2522C41.7244 27.4553 41.9688 27.2109 42.447 26.8178C43.892 25.6278 46.1445 24.8415 48.3013 24.7672C48.5457 24.7672 49.3532 24.8097 50.1076 24.8628C52.2751 25.0434 53.752 25.5747 55.1757 26.7115C56.2489 27.5615 57.8745 29.559 57.7151 29.8247C57.6089 29.984 53.3695 32.8103 53.0932 32.8953C52.9232 32.9484 52.8064 32.8847 52.5726 32.6084C51.1276 30.8765 50.5432 30.5047 49.1407 30.4197C48.142 30.3559 47.6107 30.4728 46.9413 30.919C46.2401 31.3865 45.9001 32.0984 45.9001 33.0865C45.9107 34.5315 46.4632 35.2115 48.5032 36.2209C49.8207 36.869 50.947 37.4003 51.032 37.4003C51.1595 37.4003 53.8901 38.7603 54.602 39.1853C57.917 41.1297 59.2664 43.1272 59.617 46.5697C59.872 49.1622 59.1389 51.5315 57.5451 53.2103Z" fill="white"/>
</g>
<rect x="0.5" y="0.5" width="67" height="67" rx="15.5" stroke="url(#paint0_linear_10_6452)" stroke-opacity="0.17"/>
<defs>
<linearGradient id="paint0_linear_10_6452" x1="58.2857" y1="14.0921" x2="7.32475" y2="52.8318" gradientUnits="userSpaceOnUse">
<stop stop-color="white"/>
<stop offset="1" stop-color="white" stop-opacity="0"/>
</linearGradient>
<clipPath id="clip0_10_6452">
<rect width="68" height="68" rx="16" fill="white"/>
</clipPath>
</defs>
</svg>
